{
    "accessors" : [
        {
            "bufferView" : 0,
            "componentType" : 5123,
            "count" : 5043,
            "max" : [
                1251
            ],
            "min" : [
                0
            ],
            "type" : "SCALAR"
        },
        {
            "bufferView" : 1,
            "componentType" : 5126,
            "count" : 1252,
            "max" : [
                0.9562726020812988,
                0.6909722685813904,
                0.9903730750083923
            ],
            "min" : [
                -4.381233215332031,
                0.009027760475873947,
                -2.393340826034546
            ],
            "type" : "VEC3"
        },
        {
            "bufferView" : 2,
            "componentType" : 5126,
            "count" : 1252,
            "max" : [
                1.0,
                1.0,
                1.0
            ],
            "min" : [
                -1.0,
                -1.0,
                -1.0
            ],
            "type" : "VEC3"
        },
        {
            "bufferView" : 3,
            "componentType" : 5126,
            "count" : 1252,
            "max" : [
                0.9908075332641602,
                1.0
            ],
            "min" : [
                0.0,
                0.02934551239013672
            ],
            "type" : "VEC2"
        },
        {
            "bufferView" : 4,
            "componentType" : 5121,
            "count" : 567,
            "max" : [
                198
            ],
            "min" : [
                0
            ],
            "type" : "SCALAR"
        },
        {
            "bufferView" : 5,
            "componentType" : 5126,
            "count" : 199,
            "max" : [
                0.8195648193359375,
                0.6409722566604614,
                1.0243573188781738
            ],
            "min" : [
                -4.247269630432129,
                0.0590277761220932,
                -2.309694528579712
            ],
            "type" : "VEC3"
        },
        {
            "bufferView" : 6,
            "componentType" : 5126,
            "count" : 199,
            "max" : [
                1.1910140429449712e-08,
                1.0,
                -0.0
            ],
            "min" : [
                -3.82261582387855e-08,
                -1.0,
                -0.0
            ],
            "type" : "VEC3"
        },
        {
            "bufferView" : 7,
            "componentType" : 5126,
            "count" : 199,
            "max" : [
                0.8277730941772461,
                0.9057008326053619
            ],
            "min" : [
                0.09228454530239105,
                0.2953294515609741
            ],
            "type" : "VEC2"
        },
        {
            "bufferView" : 8,
            "componentType" : 5123,
            "count" : 1872,
            "max" : [
                323
            ],
            "min" : [
                0
            ],
            "type" : "SCALAR"
        },
        {
            "bufferView" : 9,
            "componentType" : 5126,
            "count" : 324,
            "max" : [
                1.100000023841858,
                0.10000000894069672,
                0.5056619644165039
            ],
            "min" : [
                -1.100000023841858,
                -0.10000000894069672,
                -1.1000001430511475
            ],
            "type" : "VEC3"
        },
        {
            "bufferView" : 10,
            "componentType" : 5126,
            "count" : 324,
            "max" : [
                0.999969482421875,
                1.0,
                1.0
            ],
            "min" : [
                -1.0,
                -1.0,
                -0.999969482421875
            ],
            "type" : "VEC3"
        }
    ],
    "asset" : {
        "generator" : "Khronos Blender glTF 2.0 exporter",
        "version" : "2.0"
    },
    "bufferViews" : [
        {
            "buffer" : 0,
            "byteLength" : 10086,
            "byteOffset" : 0,
            "target" : 34963
        },
        {
            "buffer" : 0,
            "byteLength" : 15024,
            "byteOffset" : 10088,
            "target" : 34962
        },
        {
            "buffer" : 0,
            "byteLength" : 15024,
            "byteOffset" : 25112,
            "target" : 34962
        },
        {
            "buffer" : 0,
            "byteLength" : 10016,
            "byteOffset" : 40136,
            "target" : 34962
        },
        {
            "buffer" : 0,
            "byteLength" : 567,
            "byteOffset" : 50152,
            "target" : 34963
        },
        {
            "buffer" : 0,
            "byteLength" : 2388,
            "byteOffset" : 50720,
            "target" : 34962
        },
        {
            "buffer" : 0,
            "byteLength" : 2388,
            "byteOffset" : 53108,
            "target" : 34962
        },
        {
            "buffer" : 0,
            "byteLength" : 1592,
            "byteOffset" : 55496,
            "target" : 34962
        },
        {
            "buffer" : 0,
            "byteLength" : 3744,
            "byteOffset" : 57088,
            "target" : 34963
        },
        {
            "buffer" : 0,
            "byteLength" : 3888,
            "byteOffset" : 60832,
            "target" : 34962
        },
        {
            "buffer" : 0,
            "byteLength" : 3888,
            "byteOffset" : 64720,
            "target" : 34962
        }
    ],
    "buffers" : [
        {
            "byteLength" : 68608,
            "uri" : "escena2.bin"
        }
    ],
    "images" : [
        {
            "name" : "METAL2",
            "uri" : "METAL2.jpg"
        },
        {
            "name" : "CIRCUITO.jpg",
            "uri" : "CIRCUITO.jpg.jpg"
        },
        {
            "name" : "METAL2.jpg",
            "uri" : "METAL2.jpg.jpg"
        }
    ],
    "materials" : [
        {
            "name" : "Material.002",
            "pbrMetallicRoughness" : {
                "baseColorTexture" : {
                    "index" : 0
                },
                "metallicFactor" : 0.0,
                "roughnessFactor" : 0.10000000149011612
            }
        },
        {
            "name" : "Material.004",
            "pbrMetallicRoughness" : {
                "baseColorTexture" : {
                    "index" : 1
                },
                "roughnessFactor" : 0.5
            }
        },
        {
            "name" : "Material.005",
            "pbrMetallicRoughness" : {
                "baseColorTexture" : {
                    "index" : 2
                },
                "metallicFactor" : 0.0,
                "roughnessFactor" : 0.10000000149011612
            }
        }
    ],
    "meshes" : [
        {
            "name" : "Cylinder.003",
            "primitives" : [
                {
                    "attributes" : {
                        "NORMAL" : 2,
                        "POSITION" : 1,
                        "TEXCOORD_0" : 3
                    },
                    "indices" : 0,
                    "material" : 2
                },
                {
                    "attributes" : {
                        "NORMAL" : 6,
                        "POSITION" : 5,
                        "TEXCOORD_0" : 7
                    },
                    "indices" : 4,
                    "material" : 1
                }
            ]
        },
        {
            "name" : "Torus.005",
            "primitives" : [
                {
                    "attributes" : {
                        "NORMAL" : 10,
                        "POSITION" : 9
                    },
                    "indices" : 8,
                    "material" : 0
                }
            ]
        }
    ],
    "nodes" : [
        {
            "name" : "Camera",
            "rotation" : [
                0.48170700669288635,
                0.3342514932155609,
                -0.21292175352573395,
                0.7816000580787659
            ],
            "scale" : [
                1.0,
                1.0,
                0.9999999403953552
            ],
            "translation" : [
                7.481131553649902,
                5.34366512298584,
                6.5076398849487305
            ]
        },
        {
            "mesh" : 0,
            "name" : "Cylinder.000",
            "scale" : [
                1.473215103149414,
                1.0,
                1.473215103149414
            ],
            "translation" : [
                2.564474105834961,
                0.0,
                1.0457779169082642
            ]
        },
        {
            "name" : "Lamp",
            "rotation" : [
                0.16907575726509094,
                0.7558802962303162,
                -0.27217137813568115,
                0.570947527885437
            ],
            "scale" : [
                1.0,
                1.0,
                0.9999999403953552
            ],
            "translation" : [
                4.076245307922363,
                5.903861999511719,
                -1.0054539442062378
            ]
        },
        {
            "mesh" : 1,
            "name" : "Torus.005",
            "scale" : [
                1.8325780630111694,
                1.8325780630111694,
                1.8325780630111694
            ],
            "translation" : [
                0.0,
                0.3499999940395355,
                -1.4537180662155151
            ]
        }
    ],
    "samplers" : [
        {}
    ],
    "scene" : 0,
    "scenes" : [
        {
            "name" : "Scene",
            "nodes" : [
                3,
                2,
                0,
                1
            ]
        }
    ],
    "textures" : [
        {
            "sampler" : 0,
            "source" : 0
        },
        {
            "sampler" : 0,
            "source" : 1
        },
        {
            "sampler" : 0,
            "source" : 2
        }
    ]
}
